<svg version="1.0" viewBox="0 0 294.66 811.37" xmlns="http://www.w3.org/2000/svg" xmlns:xlink="http://www.w3.org/1999/xlink"><defs><linearGradient id="f"><stop stop-color="#fd5a00" offset="0"/><stop stop-color="#fffa7d" offset="1"/></linearGradient><linearGradient id="e"><stop stop-color="#fde700" offset="0"/><stop stop-color="#fffaff" offset="1"/></linearGradient><linearGradient id="d"><stop stop-color="#6b6b6a" offset="0"/><stop stop-color="#bdbdbd" offset="1"/></linearGradient><linearGradient id="c"><stop offset="0"/><stop stop-color="#a7a6a6" offset="1"/></linearGradient><linearGradient id="b"><stop stop-color="#7f7f7f" offset="0"/><stop stop-color="#f0f0f0" offset="1"/></linearGradient><linearGradient id="a"><stop stop-color="#870000" offset="0"/><stop stop-color="red" offset="1"/></linearGradient><linearGradient id="o" x1="281.4" x2="402.79" y1="327.69" y2="327.69" gradientTransform="scale(1.211 .82578)" gradientUnits="userSpaceOnUse" xlink:href="#a"/><linearGradient id="p" x1="207.13" x2="296.52" y1="571.21" y2="571.21" gradientTransform="scale(1.6452 .60785)" gradientUnits="userSpaceOnUse" xlink:href="#a"/><linearGradient id="t" x1="244.96" x2="382.47" y1="827.31" y2="821.12" gradientTransform="matrix(1.23 0 0 .81299 -269.72 -139.19)" gradientUnits="userSpaceOnUse" xlink:href="#b"/><linearGradient id="u" x1="311.6" x2="428.95" y1="656.08" y2="644.08" gradientTransform="matrix(1.2043 0 0 .83038 -269.72 -139.19)" gradientUnits="userSpaceOnUse" xlink:href="#c"/><linearGradient id="r" x1="159.39" x2="273.07" y1="605.57" y2="605.57" gradientTransform="matrix(1.9222 0 0 .52022 -269.72 -139.19)" gradientUnits="userSpaceOnUse" xlink:href="#b"/><linearGradient id="w" x1="686.6" x2="624.77" y1="477.82" y2="539.75" gradientTransform="matrix(.59248 0 0 1.6878 -316.86 -130.02)" gradientUnits="userSpaceOnUse" xlink:href="#c"/><linearGradient id="v" x1="555.85" x2="468.58" y1="657.18" y2="741.23" gradientTransform="matrix(.8165 0 0 1.2247 -316.86 -130.02)" gradientUnits="userSpaceOnUse"><stop stop-color="#522722" offset="0"/><stop stop-color="#975a00" offset="1"/></linearGradient><linearGradient id="x" x1="67.065" x2="123.1" y1="4022" y2="4022" gradientTransform="matrix(4.393 0 0 .22763 -269.72 -139.19)" gradientUnits="userSpaceOnUse" xlink:href="#d"/><linearGradient id="y" x1="61.068" x2="119.87" y1="4268.8" y2="4268.8" gradientTransform="matrix(4.6099 0 0 .21693 -269.72 -139.19)" gradientUnits="userSpaceOnUse" xlink:href="#d"/><linearGradient id="z" x1="56.119" x2="117.43" y1="4507.3" y2="4507.3" gradientTransform="matrix(4.8062 0 0 .20806 -269.72 -139.19)" gradientUnits="userSpaceOnUse" xlink:href="#d"/><linearGradient id="q" x1="509.34" x2="859.86" y1="224.17" y2="224.17" gradientTransform="matrix(.60999 0 0 1.6394 -269.72 -139.19)" gradientUnits="userSpaceOnUse" xlink:href="#d"/><linearGradient id="j" x1="136.01" x2="143.33" y1="685.12" y2="684.93" gradientTransform="scale(2.8601 .34964)" gradientUnits="userSpaceOnUse" xlink:href="#f" spreadMethod="reflect"/><linearGradient id="A" x1="690.08" x2="704.58" y1="111.14" y2="111.14" gradientTransform="matrix(.59761 0 0 1.6733 -269.72 -139.19)" gradientUnits="userSpaceOnUse" xlink:href="#c"/><linearGradient id="g" x1="136.12" x2="143.44" y1="849.9" y2="849.71" gradientTransform="scale(2.8601 .34964)" gradientUnits="userSpaceOnUse" xlink:href="#f" spreadMethod="reflect"/><linearGradient id="h" x1="235.44" x2="240.05" y1="507.46" y2="507.34" gradientTransform="scale(1.7168 .58248)" gradientUnits="userSpaceOnUse" xlink:href="#f" spreadMethod="reflect"/><linearGradient id="i" x1="183.19" x2="195.03" y1="650.93" y2="650.62" gradientTransform="scale(2.0976 .47673)" gradientUnits="userSpaceOnUse" xlink:href="#f" spreadMethod="reflect"/><linearGradient id="s" x1="245.52" x2="364.26" y1="543.02" y2="537.68" gradientTransform="matrix(1.2732 0 0 .7854 -269.72 -139.19)" gradientUnits="userSpaceOnUse" xlink:href="#b"/><radialGradient id="n" cx="171.35" cy="457.25" r="60.914" gradientTransform="scale(2.0644 .48441)" gradientUnits="userSpaceOnUse" xlink:href="#a"/><radialGradient id="m" cx="409.99" cy="281.55" r="3.736" gradientTransform="scale(1.019 .98131)" gradientUnits="userSpaceOnUse" xlink:href="#e" spreadMethod="reflect"/><radialGradient id="k" cx="1119.8" cy="107.4" r=".885" gradientTransform="scale(.40175 2.4891)" gradientUnits="userSpaceOnUse" xlink:href="#e" spreadMethod="reflect"/><radialGradient id="l" cx="968.33" cy="104.85" r=".844" gradientTransform="scale(.39207 2.5506)" gradientUnits="userSpaceOnUse" xlink:href="#e" spreadMethod="reflect"/></defs><g fill-rule="evenodd"><path d="M448.93 297.18c-1.19.49-2.02-.08-2.3-.9-9.84 5.54-21.64-4.24-32.69-4.24-13.42-.01-23.14 8.11-31.91 3.42-.15.9-.74 2.04-1.84 1.72 10.57 6.2 21.97-3.37 33.61-3.27 11.67.26 22.79 12.09 35.13 3.27z" fill="url(#g)" transform="matrix(.93482 0 0 .87923 -240.66 -93.156)"/><path d="M400.76 290.22v8.8h25.95v-8.8h-25.95z" fill="url(#h)" transform="matrix(.93482 0 0 .87923 -240.66 -93.156)"/><path d="M373.43 299.02v18.54h81.54v-18.54h-81.54z" fill="url(#i)" transform="matrix(.93482 0 0 .87923 -240.66 -93.156)"/><path d="M379.86 237.69c1.19-.49 2.02.08 2.3.9 9.84-5.54 21.64 4.23 32.69 4.24 13.42.01 23.14-8.11 31.91-3.42.15-.9.74-2.04 1.84-1.72-10.57-6.2-21.97 3.36-33.61 3.27-11.67-.26-22.79-12.09-35.13-3.27z" fill="url(#j)" transform="matrix(.93482 0 0 .87923 -240.66 -93.156)"/><path d="M454.75 267.8c0 16.64-3.08 30.14-6.88 30.14s-3.8-60.28 0-60.28 6.88 13.49 6.88 30.14z" fill="url(#k)" transform="matrix(.93482 0 0 .87923 -240.66 -93.156)"/><path d="M374.69 267.41c0 16.65 2.93 30.14 6.55 30.14s3.62-60.28 0-60.28-6.55 13.5-6.55 30.14z" fill="url(#l)" transform="matrix(.93482 0 0 .87923 -240.66 -93.156)"/><path transform="matrix(.82066 0 0 .79707 -196.489 -79.034)" d="M453.84 276.83a36.04 34.706 0 1 1-72.08 0 36.04 34.706 0 1 1 72.08 0z" fill="url(#m)"/></g><g fill-rule="evenodd"><path d="M492.47 222.02H335.85c0-20.3 35.06-36.75 78.31-36.75s78.31 16.45 78.31 36.75z" fill="url(#n)" transform="matrix(.87556 0 0 .86571 -215.53 -88.912)"/><path d="M340.76 220.48v100.24h147V220.48h-147zm4.73 4.26v92.78h37.8v-92.78h-37.8zm42.52 0v92.77h52.56v-92.77h-52.56zm57.29 0v92.78h37.8v-92.78h-37.8z" fill="url(#o)" transform="matrix(.87556 0 0 .86571 -215.53 -88.912)"/><path fill="url(#p)" d="M340.77 320.04h147.05v54.333H340.77z" transform="matrix(.87556 0 0 .86571 -215.53 -88.912)"/></g><path d="M64.361 228.3 40.975 802.93h213.82l-26.74-574.63h-163.7z" fill="url(#q)" fill-rule="evenodd"/><path d="M41.845 175.85c-2.875 0-5.189 2.1-5.189 4.7v49.73c0 2.61 2.314 4.71 5.189 4.71h208.14c2.88 0 5.2-2.1 5.2-4.71v-49.73c0-2.6-2.32-4.7-5.19-4.7H41.855zm9.355 7.57c-4.471 0-8.071 3.26-8.071 7.31v28.75c0 4.06 3.6 7.32 8.071 7.32 4.472 0 8.072-3.26 8.072-7.32v-28.75c0-4.05-3.6-7.31-8.072-7.31zm27.099 0c-4.472 0-8.072 3.26-8.072 7.31v28.75c0 4.06 3.6 7.32 8.072 7.32 4.471 0 8.071-3.26 8.071-7.32v-28.75c0-4.05-3.6-7.31-8.071-7.31zm27.101 0c-4.48 0-8.075 3.26-8.075 7.31v28.75c0 4.06 3.595 7.32 8.075 7.32 4.47 0 8.07-3.26 8.07-7.32v-28.75c0-4.05-3.6-7.31-8.07-7.31zm27.67 0c-4.47 0-8.07 3.26-8.07 7.31v28.75c0 4.06 3.6 7.32 8.07 7.32s8.07-3.26 8.07-7.32v-28.75c0-4.05-3.6-7.31-8.07-7.31zm28.83 0c-4.47 0-8.07 3.26-8.07 7.31v28.75c0 4.06 3.6 7.32 8.07 7.32s8.07-3.26 8.07-7.32v-28.75c0-4.05-3.6-7.31-8.07-7.31zm28.25 0c-4.47 0-8.07 3.26-8.07 7.31v28.75c0 4.06 3.6 7.32 8.07 7.32s8.07-3.26 8.07-7.32v-28.75c0-4.05-3.6-7.31-8.07-7.31zm26.52 0c-4.47 0-8.07 3.26-8.07 7.31v28.75c0 4.06 3.6 7.32 8.07 7.32s8.07-3.26 8.07-7.32v-28.75c0-4.05-3.6-7.31-8.07-7.31zm24.22 0c-4.47 0-8.07 3.26-8.07 7.31v28.75c0 4.06 3.6 7.32 8.07 7.32s8.07-3.26 8.07-7.32v-28.75c0-4.05-3.6-7.31-8.07-7.31z" fill="url(#r)" fill-rule="evenodd"/><path d="m63.317 234.42-4.004 107.45 174.2-.67-4.67-106.12-165.52-.66z" fill="url(#s)" fill-rule="evenodd"/><path d="m54.641 470.01-4.672 128.81h194.88l-6-128.81H54.639z" fill="url(#t)" fill-rule="evenodd"/><path fill="#3b3a3a" fill-rule="evenodd" d="M152.08 249.77h8.009v38.862h-8.009z"/><path d="m59.313 341.87-5.34 127.48 184.88-.67-6.01-126.81H59.313z" fill="url(#u)" fill-rule="evenodd"/><path fill="#010000" fill-rule="evenodd" d="M153.42 366.51h8.009v40.172h-8.009z"/><path d="M101.97 674.86c-18.759 0-33.861 15.97-33.861 35.8l.996 66.34H136.2l-1-66.34c0-19.83-12.48-35.8-31.24-35.8h-1.99z" fill="url(#v)" fill-rule="evenodd"/><path d="M101.97 674.86c-18.759 0-33.861 15.97-33.861 35.8l.996 66.34h6.861l-.996-66.34c0-19.83 16.324-31.87 28.99-35.8h-1.99z" fill="url(#w)" fill-rule="evenodd"/><path fill="url(#x)" fill-rule="evenodd" d="M24.898 776.34h246.17v12.756H24.898z"/><path fill="url(#y)" fill-rule="evenodd" d="M11.794 786.82h271.07v12.756H11.794z"/><path fill="url(#z)" fill-rule="evenodd" d="M0 798.62h294.66v12.756H0z"/><path d="m105.06 677.3 1.31 96.97" fill="none" stroke="#000" stroke-width="1pt"/><path fill="url(#A)" fill-rule="evenodd" d="M142.68 46.785h8.664v24.259h-8.664z"/><path fill="gray" fill-rule="evenodd" d="M151.34 0h3.466v58.915h-3.466z"/></svg>